<?xml version="1.0" standalone="no"?>
<!DOCTYPE svg PUBLIC "-//W3C//DTD SVG 20010904//EN"
 "http://www.w3.org/TR/2001/REC-SVG-20010904/DTD/svg10.dtd">
<svg version="1.0" xmlns="http://www.w3.org/2000/svg"
 width="276.000000pt" height="276.000000pt" viewBox="0 0 276.000000 276.000000"
 preserveAspectRatio="xMidYMid meet">
<metadata>
Created by potrace 1.11, written by Peter Selinger 2001-2013
</metadata>
<g transform="translate(0.000000,276.000000) scale(0.100000,-0.100000)"
fill="#000000" stroke="none">
<path d="M1702 2692 c-41 -41 -155 -226 -189 -307 -12 -27 -24 -81 -28 -120
-7 -70 -17 -96 -29 -76 -4 6 -2 20 4 32 9 16 8 24 -5 39 -20 22 -40 20 -59 -6
-11 -15 -27 -19 -73 -20 -45 -1 -67 -6 -90 -23 l-30 -23 -56 56 c-46 47 -62
56 -91 56 -38 0 -76 -36 -76 -71 0 -21 -16 -26 -22 -7 -4 10 -10 10 -31 1 -24
-11 -27 -11 -27 7 0 36 -31 21 -51 -25 -22 -50 -28 -56 -22 -21 3 13 0 26 -5
30 -14 9 -42 -21 -42 -45 0 -10 -10 -40 -22 -65 -11 -25 -22 -58 -24 -73 -1
-14 -2 -31 -3 -38 -1 -7 -15 -28 -31 -47 -61 -69 -72 -142 -27 -179 19 -16 32
-18 107 -12 47 3 99 9 116 11 26 4 35 -1 62 -34 l31 -39 -42 4 c-55 6 -86 -24
-93 -91 -5 -45 -4 -47 18 -41 16 3 32 -4 55 -25 31 -28 45 -70 23 -70 -11 0
-40 -53 -40 -75 0 -26 27 -17 40 14 11 26 16 29 48 26 21 -1 39 -3 42 -4 3 -1
14 -16 24 -35 19 -35 48 -55 54 -38 3 10 116 -61 127 -79 4 -5 22 -9 41 -9
l35 0 -28 -51 c-15 -28 -43 -68 -61 -88 -45 -47 -52 -63 -45 -92 9 -34 23 -40
54 -23 34 17 39 24 45 71 7 61 43 170 60 184 13 10 19 8 42 -14 27 -27 27 -29
28 -175 0 -97 5 -155 13 -170 26 -48 33 -18 32 123 -2 148 -6 177 -28 212 -13
20 -12 22 16 28 43 9 101 -11 101 -36 0 -25 27 -25 48 1 10 11 32 22 51 25 99
17 162 95 226 280 16 44 37 90 47 101 14 16 19 38 20 80 1 82 16 107 73 122
43 11 104 57 92 68 -3 3 -28 -7 -56 -21 -28 -15 -55 -25 -61 -23 -21 7 39 58
93 78 76 28 136 90 187 191 39 79 48 108 33 110 -5 0 -15 2 -23 3 -8 2 -46 7
-85 11 -38 5 -74 9 -80 10 -38 4 -113 -87 -155 -191 -14 -33 -37 -64 -66 -88
l-44 -37 0 54 c0 36 -5 59 -15 67 -16 13 -39 4 -32 -14 2 -6 1 -20 -4 -31 -7
-18 -8 -17 -8 7 -1 45 -19 78 -41 78 -12 0 -20 -7 -20 -16 0 -13 -4 -11 -18 6
-16 20 -19 20 -31 6 -10 -12 -18 -13 -32 -5 -27 14 -24 24 20 68 118 118 250
341 235 398 -3 11 -20 28 -37 38 -18 10 -54 36 -80 57 -56 44 -60 45 -85 20z
m-558 -470 l38 -40 -33 -7 c-50 -11 -100 -36 -134 -67 -26 -24 -31 -25 -36
-11 -7 21 16 135 33 163 25 40 68 28 132 -38z m36 -64 c-1 -2 -9 -28 -20 -58
-16 -49 -23 -56 -56 -66 -20 -5 -54 -25 -76 -43 -28 -24 -42 -30 -47 -22 -7
10 -7 20 -2 63 3 21 72 84 116 104 42 20 86 31 85 22z m202 -68 c52 -15 65
-42 41 -83 -11 -18 -28 -33 -40 -35 -17 -3 -24 5 -35 40 -19 57 -47 62 -78 14
-12 -20 -28 -36 -36 -36 -31 0 -59 101 -31 114 17 8 135 -1 179 -14z m263 1
c3 -5 1 -12 -4 -15 -6 -4 -6 -19 0 -39 11 -38 11 -37 1 -37 -14 0 -43 66 -36
83 7 18 29 23 39 8z m-688 -38 c-9 -61 -18 -97 -26 -106 -4 -4 -23 -12 -42
-17 l-34 -10 33 26 c36 29 41 53 12 61 -19 5 -18 8 12 43 18 21 37 39 41 39 5
1 7 -16 4 -36z m676 -90 c5 -25 -11 -30 -44 -13 -22 12 -23 18 -8 57 l10 28
19 -25 c10 -13 20 -35 23 -47z m51 -52 c-9 -10 -26 18 -18 30 5 9 9 8 14 -7 4
-10 6 -21 4 -23z m-684 -151 c5 0 8 -9 7 -20 -2 -24 -10 -25 -31 -4 -21 20
-21 38 0 30 9 -3 19 -6 24 -6z m590 -510 c0 -5 -5 -10 -11 -10 -5 0 -7 5 -4
10 3 6 8 10 11 10 2 0 4 -4 4 -10z"/>
<path d="M1287 2604 c-2 -2 -21 -4 -42 -5 -147 -8 -485 -120 -471 -156 8 -20
86 -153 90 -153 2 0 37 16 78 35 112 51 256 86 386 94 21 1 22 5 22 94 l0 93
-30 0 c-17 0 -32 -1 -33 -2z"/>
<path d="M1410 2485 c0 -36 4 -65 8 -65 9 0 72 106 72 121 0 5 -18 9 -40 9
l-40 0 0 -65z"/>
<path d="M1953 2437 c-10 -22 -7 -26 44 -55 52 -30 82 -34 117 -14 9 5 -122
92 -140 92 -6 0 -16 -11 -21 -23z"/>
<path d="M619 2356 c-126 -95 -307 -295 -321 -354 -2 -7 19 -25 47 -40 l49
-28 57 75 c31 42 79 99 107 128 52 54 188 163 203 163 16 0 9 29 -18 75 -16
25 -30 45 -33 45 -3 0 -44 -29 -91 -64z"/>
<path d="M1896 2330 l-17 -30 33 -20 c18 -11 36 -20 40 -20 9 0 42 49 37 54
-2 1 -20 12 -40 24 l-35 21 -18 -29z"/>
<path d="M2353 2110 c-9 -25 -6 -34 33 -90 53 -76 114 -195 144 -277 19 -53
27 -63 46 -63 33 0 36 11 15 66 -49 133 -102 235 -173 331 -48 66 -52 68 -65
33z"/>
<path d="M2285 1997 c-20 -31 -22 -22 34 -116 25 -40 60 -110 78 -155 28 -70
36 -81 55 -78 12 1 26 6 31 11 19 19 -110 292 -162 345 -19 18 -19 18 -36 -7z"/>
<path d="M212 1848 c-61 -139 -89 -252 -107 -424 -6 -55 -4 -62 13 -66 32 -9
39 3 46 78 4 39 8 80 10 90 26 126 68 257 103 323 12 24 23 50 23 57 0 11 -29
34 -43 34 -3 0 -23 -42 -45 -92z"/>
<path d="M342 1843 c-63 -129 -102 -270 -116 -429 -4 -48 -3 -52 19 -56 36 -7
42 2 49 67 13 127 45 247 95 357 l30 68 -29 15 c-29 15 -30 15 -48 -22z"/>
<path d="M2605 1625 c-5 -2 -30 -9 -53 -15 l-44 -11 6 -42 c3 -23 10 -69 15
-102 5 -33 7 -68 5 -77 -3 -18 2 -20 66 -20 66 0 63 -5 56 75 -4 39 -8 79 -10
87 -1 8 -6 36 -11 63 -7 46 -10 49 -30 42z"/>
<path d="M105 1236 c8 -96 28 -206 38 -206 5 0 46 10 92 22 63 16 82 25 80 37
-2 9 -7 41 -11 71 -4 30 -9 58 -10 63 -1 4 -2 23 -3 41 l-1 35 -95 -1 -95 0 5
-62z"/>
<path d="M2475 1287 c-2 -7 -7 -41 -10 -76 -3 -35 -9 -80 -14 -100 -5 -20 -12
-49 -15 -64 l-7 -28 48 6 c70 9 105 16 100 22 -3 2 -1 19 4 36 9 31 20 123 23
182 l1 30 -63 2 c-41 1 -64 -2 -67 -10z"/>
<path d="M260 997 c-40 -11 -45 -15 -43 -39 1 -16 17 -63 35 -105 l34 -78 64
4 c36 2 68 5 72 8 4 2 -3 25 -16 51 -13 26 -34 75 -46 110 -25 67 -26 68 -100
49z"/>
<path d="M2643 918 c3 -29 9 -84 13 -121 l7 -69 46 6 c25 2 47 5 49 5 7 2 -8
106 -17 109 -5 2 -7 18 -4 37 3 19 3 45 -1 59 -6 23 -11 26 -52 26 l-46 0 5
-52z m73 -5 c3 -24 -1 -35 -16 -43 -22 -12 -27 -6 -30 35 -3 44 -2 47 21 43
16 -2 23 -11 25 -35z m16 -118 c3 -28 0 -36 -15 -41 -24 -8 -28 -3 -37 45 -6
33 -4 41 9 44 25 5 38 -10 43 -48z"/>
<path d="M2584 904 c4 -33 9 -82 12 -110 6 -49 5 -51 -20 -56 -19 -4 -26 -1
-27 11 0 9 -3 28 -5 44 -2 15 -6 39 -8 55 -2 15 -5 44 -5 65 -1 25 -6 37 -16
37 -10 0 -13 -9 -11 -27 10 -80 18 -173 15 -176 -2 -2 2 -11 10 -21 10 -12 23
-15 50 -10 43 8 51 18 45 58 -2 17 -7 56 -10 86 -10 91 -10 94 -23 98 -10 3
-12 -9 -7 -54z"/>
<path d="M2405 870 c4 -38 8 -78 10 -87 2 -10 4 -33 4 -51 1 -32 2 -33 38 -30
20 2 39 10 41 16 3 9 -5 12 -23 10 -30 -3 -29 -6 -40 92 -3 30 -8 64 -10 75
-2 11 -4 26 -4 33 -1 6 -6 12 -12 12 -7 0 -9 -22 -4 -70z"/>
<path d="M2286 923 c-20 -5 -19 -26 1 -183 6 -53 11 -57 59 -52 39 5 49 19 40
57 -9 34 -28 32 -24 -2 3 -24 -1 -28 -24 -31 -26 -3 -28 -1 -29 35 0 21 -2 47
-4 58 -2 11 -5 37 -7 59 -3 33 0 39 20 42 12 2 22 1 23 -4 2 -21 8 -44 13 -49
10 -10 18 26 12 52 -6 25 -30 31 -80 18z"/>
<path d="M2125 902 c-12 -8 -11 -2 -19 -134 -4 -71 -3 -108 4 -108 5 0 11 5
11 10 1 6 3 15 4 20 1 6 3 15 4 20 3 22 41 10 47 -15 4 -14 11 -24 18 -22 6 3
9 11 7 18 -14 53 -61 212 -63 215 -2 2 -8 0 -13 -4z m35 -154 c0 -5 -7 -8 -15
-8 -12 0 -15 13 -14 58 l1 57 14 -50 c7 -27 14 -53 14 -57z"/>
<path d="M1956 882 c-7 -11 -2 -107 9 -157 2 -11 4 -32 4 -47 1 -26 4 -28 39
-28 60 0 65 8 57 88 -4 40 -8 80 -10 89 -2 10 -4 28 -4 41 -1 13 -7 22 -16 22
-11 0 -14 -7 -11 -22 3 -13 8 -48 11 -78 3 -30 8 -69 11 -85 4 -28 2 -31 -24
-33 -17 -1 -29 3 -29 10 0 7 -4 46 -8 87 -10 93 -19 129 -29 113z"/>
<path d="M1831 869 c-21 -8 -23 -13 -17 -59 3 -28 9 -74 12 -102 8 -79 9 -80
50 -73 79 12 86 16 70 34 -12 13 -20 58 -31 171 -3 37 -33 47 -84 29z m60 -31
c0 -13 2 -32 4 -42 10 -52 8 -91 -3 -88 -16 3 -15 -8 3 -28 14 -16 14 -18 -4
-23 -29 -7 -38 10 -45 88 -4 39 -9 78 -12 87 -5 15 0 18 49 27 4 0 7 -9 8 -21z"/>
<path d="M1719 848 c0 -7 -2 -22 -4 -33 -10 -49 -9 -190 0 -192 10 -3 11 0 14
31 0 7 10 16 20 19 15 4 22 -2 30 -25 18 -52 31 -21 14 35 -9 28 -23 79 -33
111 -15 55 -39 86 -41 54z m33 -118 c2 -19 -2 -35 -9 -37 -10 -3 -13 10 -13
49 1 58 17 49 22 -12z"/>
<path d="M1507 832 c-11 -2 -16 -10 -13 -20 4 -16 17 -119 21 -172 2 -14 3
-31 4 -38 1 -14 82 -6 92 10 9 14 -7 102 -20 106 -9 3 -9 7 -1 17 7 9 9 31 5
60 -7 44 -9 45 -39 43 -17 -1 -39 -4 -49 -6z m65 -42 c2 -16 0 -36 -4 -44 -9
-16 -37 -22 -39 -8 0 4 -3 18 -5 32 -6 33 0 45 24 47 15 1 21 -6 24 -27z m12
-111 c10 -51 8 -59 -19 -59 -15 0 -25 6 -25 14 0 7 -3 28 -6 45 -6 28 -4 31
19 31 20 0 26 -6 31 -31z"/>
<path d="M1435 809 c5 -25 18 -149 19 -178 1 -19 -5 -25 -25 -28 -16 -2 -26 2
-26 9 0 22 -13 142 -18 163 -2 11 -4 26 -4 33 -1 6 -6 12 -12 12 -11 0 -9 -45
6 -170 9 -71 11 -72 54 -67 41 4 64 14 57 25 -2 4 -7 36 -11 72 -5 36 -9 74
-11 85 -1 11 -3 29 -3 41 -1 11 -7 21 -15 21 -8 0 -13 -8 -11 -18z"/>
<path d="M1248 802 c-39 -8 -18 -76 39 -128 42 -39 46 -84 8 -84 -20 0 -25 5
-25 26 0 16 -5 24 -12 21 -16 -5 -11 -59 5 -69 11 -6 39 -3 75 8 25 8 4 76
-37 119 -49 51 -56 72 -30 86 26 14 34 5 38 -44 1 -5 6 -5 11 -2 6 4 9 21 7
38 -3 28 -7 32 -33 33 -16 0 -37 -2 -46 -4z"/>
<path d="M1056 783 l-38 -4 6 -57 c3 -31 9 -82 12 -112 3 -30 8 -59 11 -63 8
-13 95 0 105 15 18 29 -4 197 -29 216 -9 6 -19 11 -22 10 -3 -1 -23 -3 -45 -5z
m47 -41 c3 -4 8 -41 12 -83 6 -64 4 -77 -9 -82 -19 -8 -23 -2 -31 53 -3 25 -8
58 -11 73 -2 15 -2 32 1 38 7 11 32 12 38 1z"/>
<path d="M887 762 c-10 -2 -15 -7 -13 -10 2 -4 7 -34 10 -67 17 -161 17 -161
37 -162 18 -2 19 3 14 65 l-6 67 20 -45 c11 -25 23 -53 27 -62 7 -19 44 -25
44 -8 0 6 -9 29 -21 52 -16 32 -18 42 -8 49 14 8 16 72 4 110 -5 16 -14 19
-49 17 -23 -2 -50 -4 -59 -6z m74 -49 c0 -10 2 -26 4 -35 2 -13 -3 -18 -19
-18 -18 0 -22 6 -24 35 -2 29 1 35 18 35 12 0 20 -7 21 -17z"/>
<path d="M825 754 c-5 -2 -28 -5 -50 -7 -39 -3 -40 -4 -39 -43 2 -71 16 -179
25 -190 10 -12 94 -3 108 12 5 5 5 38 0 74 -5 36 -11 83 -14 104 -5 42 -13 56
-30 50z m-11 -45 c3 -3 8 -36 12 -74 3 -39 8 -73 10 -77 4 -7 -35 -23 -41 -16
-7 6 -25 160 -20 168 5 8 31 8 39 -1z"/>
<path d="M644 731 c-23 -4 -30 -11 -29 -26 8 -79 18 -162 20 -175 2 -8 4 -21
4 -27 1 -7 10 -13 20 -13 17 0 19 6 14 54 -5 51 -4 55 17 58 13 1 24 11 26 20
2 15 -3 17 -26 13 -26 -5 -28 -2 -32 30 -3 28 -1 35 13 35 30 0 48 11 42 26
-5 15 -17 16 -69 5z"/>
<path d="M479 709 c-7 -4 -9 -25 -5 -58 3 -28 9 -75 12 -103 8 -77 8 -77 51
-71 71 9 76 16 69 91 -8 90 -15 124 -28 140 -11 13 -79 14 -99 1z m70 -37 c5
-10 12 -48 16 -85 6 -57 5 -68 -9 -73 -21 -8 -24 -5 -30 31 -16 98 -17 129 -4
136 17 11 16 12 27 -9z"/>
<path d="M367 699 c-11 -6 -16 -17 -13 -27 3 -9 8 -39 11 -67 2 -27 7 -72 11
-98 l6 -48 46 6 c54 7 54 7 47 27 -4 9 -15 13 -29 11 -30 -6 -32 -2 -40 79 -7
66 -15 121 -19 125 -1 1 -10 -3 -20 -8z"/>
<path d="M229 681 c-2 -10 8 -107 17 -168 3 -18 2 -33 -3 -34 -4 0 -16 -2 -25
-4 -14 -2 -18 4 -19 28 0 18 -3 48 -5 67 -9 63 -12 85 -13 97 0 6 -9 10 -18 8
-10 -1 -17 -10 -17 -18 7 -86 15 -156 18 -172 3 -11 5 -26 5 -33 1 -10 15 -13
49 -11 71 4 74 6 68 53 -3 22 -8 68 -11 101 -9 80 -13 92 -30 92 -8 0 -16 -3
-16 -6z"/>
<path d="M294 648 c3 -24 8 -70 11 -103 9 -81 14 -95 32 -95 13 0 15 11 9 73
-13 149 -17 167 -38 167 -17 0 -19 -5 -14 -42z"/>
<path d="M35 661 c-27 -6 -30 -10 -29 -46 2 -76 15 -180 24 -189 4 -4 31 -5
59 -1 56 8 59 13 45 98 -6 33 -10 37 -35 37 -22 0 -29 -5 -29 -19 0 -10 7 -21
15 -25 23 -8 19 -53 -5 -59 -11 -3 -20 0 -21 6 0 7 -2 19 -3 27 -2 8 -6 43
-10 78 -6 58 -5 62 14 62 11 0 20 -3 20 -7 1 -19 18 -33 32 -28 11 5 15 15 12
33 -9 45 -18 49 -89 33z"/>
<path d="M2318 622 c-10 -2 -62 -47 -115 -101 -54 -54 -124 -115 -155 -136
-32 -21 -58 -42 -58 -47 0 -5 7 -20 16 -33 l16 -25 61 43 c78 54 203 171 255
240 23 30 42 57 42 60 0 7 -28 6 -62 -1z"/>
<path d="M1614 506 c-3 -9 -3 -24 2 -33 7 -16 8 -16 11 4 2 12 11 24 19 27 18
7 19 -35 2 -53 -11 -10 -10 -14 5 -22 21 -12 23 -59 2 -59 -8 0 -15 9 -15 20
0 11 -4 20 -10 20 -16 0 -11 -38 6 -48 9 -5 25 -7 35 -5 23 7 26 55 4 73 -11
9 -12 16 -5 25 6 7 9 23 7 36 -5 29 -53 40 -63 15z"/>
<path d="M1528 498 c-8 -22 4 -69 17 -65 19 8 33 -6 36 -37 5 -34 -16 -47 -26
-17 -9 30 -23 26 -17 -4 3 -20 10 -25 33 -25 28 0 33 7 30 40 -4 43 -13 60
-30 60 -23 0 -37 30 -19 41 6 4 15 6 19 3 4 -2 10 0 14 6 4 6 -6 10 -24 10
-16 0 -31 -5 -33 -12z"/>
<path d="M1411 488 c-12 -4 -20 -11 -18 -15 4 -7 18 -100 20 -130 0 -14 35
-17 54 -5 12 8 12 36 0 48 -4 4 -7 -2 -7 -14 0 -23 -29 -32 -31 -9 -4 46 -9
84 -13 100 -3 12 2 17 15 17 13 0 19 -7 19 -21 0 -11 4 -18 9 -15 5 4 8 14 6
24 -2 9 -4 20 -4 23 -1 8 -24 7 -50 -3z"/>
<path d="M1336 469 c-9 -44 -12 -149 -4 -149 4 0 8 6 8 14 0 23 22 31 35 13
23 -32 23 -17 -2 60 -28 90 -30 93 -37 62z m27 -74 c3 -16 0 -24 -7 -22 -11 4
-16 25 -9 40 7 12 10 8 16 -18z"/>
<path d="M1241 472 c-21 -7 -11 -47 19 -80 34 -37 40 -65 13 -60 -10 2 -18 8
-18 15 0 6 -3 15 -7 19 -5 4 -8 -4 -8 -19 0 -32 13 -41 47 -33 21 6 24 11 18
34 -3 15 -17 38 -29 52 -13 14 -26 33 -29 43 -10 26 22 21 33 -5 8 -21 9 -20
9 9 1 31 -10 38 -48 25z"/>
<path d="M1157 462 c-18 -4 -18 -25 -2 -142 2 -18 54 -24 61 -7 2 7 1 43 -3
81 -8 71 -14 78 -56 68z m31 -37 c-4 -33 -22 -33 -26 0 -2 18 1 25 13 25 12 0
15 -7 13 -25z m13 -78 c6 -22 4 -27 -12 -27 -15 0 -19 7 -19 31 0 37 21 35 31
-4z"/>
<path d="M646 429 c-38 -5 -72 -12 -75 -14 -5 -6 8 -17 104 -86 78 -57 191
-116 290 -154 l66 -24 9 25 c9 23 19 64 23 92 1 8 -23 23 -58 36 -84 32 -110
45 -191 93 -39 24 -78 42 -85 42 -8 -1 -45 -6 -83 -10z"/>
<path d="M1810 326 c-87 -39 -217 -73 -310 -81 -36 -4 -71 -8 -77 -10 -9 -3
-13 -31 -13 -96 l0 -91 78 5 c101 7 213 31 320 69 91 32 182 74 182 84 0 16
-85 154 -94 154 -6 0 -45 -16 -86 -34z"/>
<path d="M1100 158 c-6 -24 -13 -51 -16 -60 -3 -10 -3 -18 -1 -18 2 0 28 -5
57 -10 29 -6 88 -13 132 -16 l78 -7 0 62 c0 42 -4 61 -12 62 -40 2 -110 11
-157 19 -30 6 -58 10 -62 10 -5 0 -13 -19 -19 -42z"/>
</g>
</svg>
